<svg xmlns="http://www.w3.org/2000/svg" version="1.1" width="1024" height="768">
<rect x="0" y="0" width="1024" height="768" fill="#607153" />
<g transform="scale(4.000000) translate(0.5 0.5)">
<polygon fill="#001389" fill-opacity="0.501961" points="141,39 100,207 271,183" />
<polygon fill="#fffc95" fill-opacity="0.501961" points="-15,201 110,203 107,116" />
<polygon fill="#a9ab50" fill-opacity="0.501961" points="-16,124 -10,-7 265,-2" />
<polygon fill="#000000" fill-opacity="0.501961" points="43,119 120,102 42,72" />
<polygon fill="#ffffc3" fill-opacity="0.501961" points="38,126 -4,83 33,48" />
<polygon fill="#ffffff" fill-opacity="0.501961" points="92,-16 -6,-5 95,15" />
<polygon fill="#577200" fill-opacity="0.501961" points="160,44 245,-16 271,133" />
<polygon fill="#001933" fill-opacity="0.501961" points="234,112 224,207 152,62" />
<polygon fill="#414955" fill-opacity="0.501961" points="35,38 34,101 169,8" />
<polygon fill="#f68f00" fill-opacity="0.501961" points="144,56 113,84 91,37" />
<polygon fill="#d4e765" fill-opacity="0.501961" points="144,38 195,-11 181,83" />
<polygon fill="#185cb8" fill-opacity="0.501961" points="120,71 103,144 186,207" />
<polygon fill="#000000" fill-opacity="0.501961" points="107,60 100,128 75,104" />
<polygon fill="#fffffc" fill-opacity="0.501961" points="-14,207 46,207 56,161" />
<polygon fill="#5b6900" fill-opacity="0.501961" points="5,176 44,172 -16,64" />
<polygon fill="#fffff6" fill-opacity="0.501961" points="250,132 250,116 236,111" />
<polygon fill="#c9c7fd" fill-opacity="0.501961" points="101,63 84,87 61,76" />
<polygon fill="#1a4eac" fill-opacity="0.501961" points="200,105 271,197 271,145" />
<polygon fill="#104386" fill-opacity="0.501961" points="104,29 148,42 173,82" />
<polygon fill="#759400" fill-opacity="0.501961" points="164,8 135,17 212,97" />
<polygon fill="#e48f00" fill-opacity="0.501961" points="110,102 90,125 102,146" />
<polygon fill="#304700" fill-opacity="0.501961" points="39,7 20,17 21,70" />
<polygon fill="#ffffff" fill-opacity="0.501961" points="23,42 10,46 16,21" />
<polygon fill="#ffffff" fill-opacity="0.501961" points="183,16 173,-7 199,9" />
<polygon fill="#3a4f1a" fill-opacity="0.501961" points="26,73 78,36 68,-3" />
<polygon fill="#ffffff" fill-opacity="0.501961" points="84,164 85,131 68,157" />
<polygon fill="#060207" fill-opacity="0.501961" points="185,76 162,89 243,124" />
<polygon fill="#557200" fill-opacity="0.501961" points="271,16 209,-16 175,64" />
<polygon fill="#d1c2c8" fill-opacity="0.501961" points="165,72 147,33 192,77" />
<polygon fill="#ebd3aa" fill-opacity="0.501961" points="114,-4 175,-4 119,14" />
<polygon fill="#ffffff" fill-opacity="0.501961" points="95,13 69,7 89,-16" />
<polygon fill="#00233d" fill-opacity="0.501961" points="57,41 89,27 133,40" />
<polygon fill="#5a7700" fill-opacity="0.501961" points="86,19 164,35 101,3" />
<polygon fill="#4879ce" fill-opacity="0.501961" points="149,53 105,98 114,124" />
<polygon fill="#364a00" fill-opacity="0.501961" points="-16,37 12,12 7,61" />
<polygon fill="#edff1f" fill-opacity="0.501961" points="153,25 186,44 185,21" />
<polygon fill="#889631" fill-opacity="0.501961" points="112,195 54,178 97,153" />
<polygon fill="#ffffde" fill-opacity="0.501961" points="10,63 16,90 -2,95" />
<polygon fill="#cfd73c" fill-opacity="0.501961" points="57,5 -16,20 23,-11" />
<polygon fill="#e29c00" fill-opacity="0.501961" points="111,39 108,84 138,65" />
<polygon fill="#134274" fill-opacity="0.501961" points="100,195 271,201 149,87" />
<polygon fill="#727c25" fill-opacity="0.501961" points="7,126 89,109 25,185" />
<polygon fill="#faecc4" fill-opacity="0.501961" points="40,118 27,65 25,124" />
<polygon fill="#608ec5" fill-opacity="0.501961" points="74,26 121,23 136,39" />
<polygon fill="#1e1104" fill-opacity="0.501961" points="109,107 85,135 103,48" />
<polygon fill="#fff9b8" fill-opacity="0.501961" points="4,194 -16,180 4,169" />
<polygon fill="#bcc75d" fill-opacity="0.501961" points="43,3 56,34 34,54" />
<polygon fill="#f0f45b" fill-opacity="0.501961" points="209,79 195,85 212,95" />
<polygon fill="#131012" fill-opacity="0.501961" points="121,81 53,126 36,99" />
<polygon fill="#757717" fill-opacity="0.501961" points="10,91 31,104 -16,123" />
</g>
</svg>