<svg xmlns="http://www.w3.org/2000/svg" version="1.1" width="1024" height="768">
<rect x="0" y="0" width="1024" height="768" fill="#4d5427" />
<g transform="scale(4.000000) translate(0.5 0.5)">
<polygon fill="#fff287" fill-opacity="0.501961" points="98,49 89,184 190,3" />
<polygon fill="#000000" fill-opacity="0.501961" points="123,25 10,182 -16,-16" />
<polygon fill="#c2f73b" fill-opacity="0.501961" points="225,12 169,89 271,114" />
<polygon fill="#879bb0" fill-opacity="0.501961" points="-16,174 66,207 169,77" />
<polygon fill="#ffffff" fill-opacity="0.501961" points="135,98 102,143 93,67" />
<polygon fill="#000000" fill-opacity="0.501961" points="28,-16 115,156 -16,114" />
<polygon fill="#dad40b" fill-opacity="0.501961" points="219,18 117,73 96,8" />
<polygon fill="#8d0000" fill-opacity="0.501961" points="132,89 224,46 96,60" />
<polygon fill="#000000" fill-opacity="0.501961" points="211,95 71,169 230,133" />
<polygon fill="#000000" fill-opacity="0.501961" points="250,-16 264,21 151,3" />
<polygon fill="#000000" fill-opacity="0.501961" points="109,-16 -16,-16 17,174" />
<polygon fill="#cedb81" fill-opacity="0.501961" points="203,137 210,207 175,174" />
<polygon fill="#fffff1" fill-opacity="0.501961" points="196,152 228,143 242,122" />
<polygon fill="#ffffe5" fill-opacity="0.501961" points="120,147 99,130 138,84" />
<polygon fill="#7d99b8" fill-opacity="0.501961" points="97,134 69,119 4,182" />
<polygon fill="#4f903a" fill-opacity="0.501961" points="68,60 176,17 110,1" />
<polygon fill="#132007" fill-opacity="0.501961" points="188,207 178,161 37,178" />
<polygon fill="#72a527" fill-opacity="0.501961" points="116,103 247,35 141,132" />
<polygon fill="#fff400" fill-opacity="0.501961" points="183,31 115,73 118,33" />
<polygon fill="#000000" fill-opacity="0.501961" points="88,114 100,43 -16,163" />
<polygon fill="#98b933" fill-opacity="0.501961" points="232,108 180,8 266,29" />
<polygon fill="#000000" fill-opacity="0.501961" points="169,50 179,29 207,57" />
<polygon fill="#fff2f8" fill-opacity="0.501961" points="247,55 251,105 240,87" />
<polygon fill="#ebffff" fill-opacity="0.501961" points="95,122 92,80 116,74" />
<polygon fill="#000000" fill-opacity="0.501961" points="171,101 202,145 244,118" />
<polygon fill="#ffffe8" fill-opacity="0.501961" points="53,180 40,203 101,198" />
<polygon fill="#d41d00" fill-opacity="0.501961" points="95,72 176,43 152,78" />
<polygon fill="#fff1a3" fill-opacity="0.501961" points="27,203 0,157 31,187" />
<polygon fill="#1f4d00" fill-opacity="0.501961" points="255,174 186,162 271,120" />
<polygon fill="#000000" fill-opacity="0.501961" points="122,84 136,83 105,64" />
<polygon fill="#ca9b4c" fill-opacity="0.501961" points="88,193 103,164 76,159" />
<polygon fill="#0f0b00" fill-opacity="0.501961" points="142,71 127,129 147,96" />
<polygon fill="#a2cc2d" fill-opacity="0.501961" points="84,33 114,44 72,50" />
<polygon fill="#000000" fill-opacity="0.501961" points="226,-16 147,8 271,14" />
<polygon fill="#000000" fill-opacity="0.501961" points="-16,2 92,-16 58,127" />
<polygon fill="#000000" fill-opacity="0.501961" points="102,46 18,170 -16,137" />
<polygon fill="#fffffb" fill-opacity="0.501961" points="183,178 198,197 186,167" />
<polygon fill="#061e00" fill-opacity="0.501961" points="149,0 181,30 159,22" />
<polygon fill="#79ab31" fill-opacity="0.501961" points="151,182 175,157 157,136" />
<polygon fill="#a4ce00" fill-opacity="0.501961" points="201,65 215,108 243,110" />
<polygon fill="#d2d99c" fill-opacity="0.501961" points="176,6 209,27 165,18" />
<polygon fill="#05192d" fill-opacity="0.501961" points="94,167 100,136 127,149" />
<polygon fill="#000b04" fill-opacity="0.501961" points="186,192 144,154 113,206" />
<polygon fill="#789c47" fill-opacity="0.501961" points="136,156 120,190 100,164" />
<polygon fill="#000000" fill-opacity="0.501961" points="106,24 119,41 84,29" />
<polygon fill="#e4fdd7" fill-opacity="0.501961" points="128,114 108,62 99,127" />
<polygon fill="#99ad07" fill-opacity="0.501961" points="172,33 262,56 211,14" />
<polygon fill="#020000" fill-opacity="0.501961" points="123,82 171,71 165,84" />
<polygon fill="#ffffc9" fill-opacity="0.501961" points="149,32 114,46 123,34" />
<polygon fill="#2a0900" fill-opacity="0.501961" points="22,186 7,169 -16,162" />
</g>
</svg>